<?xml version="1.0" standalone="no"?>
<!DOCTYPE svg PUBLIC "-//W3C//DTD SVG 20010904//EN"
 "http://www.w3.org/TR/2001/REC-SVG-20010904/DTD/svg10.dtd">
<svg version="1.0" xmlns="http://www.w3.org/2000/svg"
 width="180.000000pt" height="180.000000pt" viewBox="0 0 180.000000 180.000000"
 preserveAspectRatio="xMidYMid meet">
<metadata>
Created by potrace 1.10, written by Peter Selinger 2001-2011
</metadata>
<g transform="translate(0.000000,180.000000) scale(0.100000,-0.100000)"
fill="#000000" stroke="none">
<path d="M523 1721 c-189 -90 -343 -240 -436 -426 -13 -27 -28 -61 -32 -75 -4
-14 15 18 42 70 101 199 237 332 436 425 40 19 68 34 62 35 -5 0 -38 -13 -72
-29z"/>
<path d="M1267 1716 c201 -96 335 -227 436 -426 27 -52 46 -84 42 -70 -25 84
-110 216 -199 308 -91 95 -240 193 -326 216 -14 4 7 -9 47 -28z"/>
<path d="M351 1082 c-86 -77 -102 -107 -92 -175 9 -56 17 -67 26 -36 4 12 22
48 41 80 19 31 34 66 34 77 0 24 35 56 51 47 27 -17 -10 -175 -41 -175 -10 0
2 46 19 78 7 13 7 23 2 27 -11 6 -11 7 -72 -111 -50 -97 -61 -152 -39 -195 17
-31 29 -22 18 15 -17 53 -2 105 34 124 49 27 95 70 108 102 14 33 10 164 -6
193 -8 14 -20 6 -83 -51z"/>
<path d="M697 1130 c-70 -56 7 -156 81 -104 25 17 31 84 9 102 -27 23 -62 24
-90 2z m68 -50 c0 -31 -3 -35 -28 -38 -31 -4 -43 14 -33 54 5 20 12 25 34 22
24 -3 27 -7 27 -38z"/>
<path d="M580 1075 c0 -51 3 -65 15 -65 9 0 15 9 15 25 0 18 5 25 20 25 11 0
20 7 20 15 0 9 -9 15 -25 15 -18 0 -23 4 -19 15 4 8 17 15 30 15 13 0 24 5 24
10 0 6 -18 10 -40 10 l-40 0 0 -65z"/>
<path d="M820 1076 c0 -52 3 -66 15 -66 9 0 15 9 15 25 0 14 5 25 10 25 6 0
16 -11 22 -25 6 -14 20 -25 30 -25 17 0 17 2 3 24 -14 20 -14 28 -3 45 20 32
0 55 -51 59 l-41 3 0 -65z m68 27 c-5 -26 -38 -29 -38 -4 0 15 6 21 21 21 14
0 19 -5 17 -17z"/>
<path d="M940 1075 l0 -65 34 0 c41 0 86 33 86 64 0 42 -27 66 -76 66 l-44 0
0 -65z m84 23 c14 -23 -3 -52 -33 -56 -19 -3 -21 1 -21 38 0 37 2 41 21 38 12
-2 27 -11 33 -20z"/>
<path d="M170 1100 c-11 -11 -20 -27 -20 -35 0 -19 36 -55 55 -55 19 0 55 36
55 55 0 19 -36 55 -55 55 -8 0 -24 -9 -35 -20z"/>
<path d="M56 1043 c10 -42 23 -63 73 -122 42 -49 46 -59 46 -106 0 -45 -5 -59
-33 -94 -18 -23 -30 -41 -27 -41 18 0 66 33 93 64 37 42 46 82 33 156 -5 30
-7 60 -4 66 2 7 -12 14 -38 18 -41 7 -129 59 -129 76 0 6 -5 10 -10 10 -6 0
-8 -11 -4 -27z m144 -114 c6 -11 10 -30 7 -42 -3 -21 -4 -21 -15 5 -6 14 -16
29 -21 33 -16 9 -13 25 4 25 8 0 19 -9 25 -21z"/>
<path d="M700 967 c-36 -18 -41 -88 -8 -111 33 -23 64 -20 87 10 26 33 26 55
4 82 -24 27 -53 34 -83 19z m64 -39 c8 -13 8 -23 0 -35 -28 -45 -89 -9 -64 38
13 24 48 22 64 -3z"/>
<path d="M822 972 c-14 -4 -6 -98 11 -119 13 -18 52 -16 71 3 22 21 22 114 1
114 -11 0 -15 -12 -15 -51 0 -47 -2 -50 -22 -47 -20 3 -24 11 -28 54 -3 35 -9
49 -18 46z"/>
<path d="M1029 972 c-1 -4 0 -25 0 -47 l2 -40 -28 42 c-15 24 -36 43 -45 43
-15 0 -18 -10 -18 -65 0 -50 3 -65 14 -65 10 0 16 13 18 42 l3 42 28 -42 c15
-23 31 -42 36 -42 15 0 18 129 4 135 -7 2 -13 1 -14 -3z"/>
<path d="M1435 972 c-5 -4 -11 -35 -12 -69 -1 -49 2 -63 13 -63 11 0 14 16 14
70 0 39 -1 70 -2 70 -2 0 -7 -4 -13 -8z"/>
<path d="M1510 967 c-38 -19 -49 -61 -23 -95 24 -33 56 -39 89 -18 18 13 24
25 24 55 0 55 -42 82 -90 58z m60 -37 c22 -40 -26 -80 -58 -48 -25 25 -6 68
30 68 9 0 22 -9 28 -20z"/>
<path d="M1708 933 l-3 -48 -25 42 c-14 25 -33 43 -42 43 -15 0 -18 -10 -18
-65 0 -50 3 -65 14 -65 10 0 16 13 18 42 l3 42 28 -42 c15 -23 32 -42 37 -42
6 0 10 31 10 70 0 78 -17 96 -22 23z"/>
<path d="M580 915 c0 -30 0 -58 -1 -62 0 -5 7 -9 16 -11 12 -3 14 2 9 22 -5
23 -3 26 20 26 16 0 26 6 26 15 0 9 -9 15 -25 15 -16 0 -25 6 -25 15 0 10 10
15 30 15 17 0 30 5 30 10 0 6 -18 10 -40 10 l-40 0 0 -55z"/>
<path d="M1080 905 c0 -63 1 -65 26 -65 28 0 65 16 76 34 14 20 8 63 -10 79
-10 10 -35 17 -55 17 l-37 0 0 -65z m70 31 c20 -25 8 -61 -20 -64 -23 -3 -25
0 -25 38 0 43 20 55 45 26z"/>
<path d="M1218 905 c-25 -62 -25 -65 -7 -65 10 0 19 7 19 15 0 9 9 15 25 15
14 0 28 -7 31 -15 7 -18 38 -20 32 -2 -3 6 -13 36 -23 65 -26 72 -45 69 -77
-13z m52 4 c0 -11 -7 -19 -16 -19 -11 0 -14 5 -10 16 3 9 6 20 6 25 0 6 5 7
10 4 6 -3 10 -15 10 -26z"/>
<path d="M1310 960 c0 -5 9 -10 20 -10 18 0 20 -7 20 -55 0 -44 3 -55 16 -55
13 0 15 10 12 55 -3 47 0 55 15 55 9 0 17 5 17 10 0 6 -22 10 -50 10 -27 0
-50 -4 -50 -10z"/>
<path d="M586 784 c-9 -8 -16 -28 -16 -43 0 -38 30 -63 72 -59 29 3 33 7 36
36 3 29 1 32 -22 32 -14 0 -26 -4 -26 -10 0 -5 7 -10 15 -10 8 0 15 -7 15 -15
0 -16 -27 -20 -48 -6 -8 5 -12 21 -10 37 3 26 7 29 37 30 19 0 36 5 39 12 6
18 -73 15 -92 -4z"/>
<path d="M710 740 c0 -45 4 -60 14 -60 9 0 12 7 9 20 -3 11 0 20 5 20 6 0 16
-9 22 -20 6 -11 17 -20 25 -20 18 0 19 12 3 28 -9 9 -9 17 2 36 18 34 -1 56
-46 56 l-34 0 0 -60z m58 23 c-5 -26 -38 -29 -38 -4 0 15 6 21 21 21 14 0 19
-5 17 -17z"/>
<path d="M853 783 c-3 -10 -12 -33 -19 -52 -18 -43 -17 -51 1 -51 8 0 15 7 15
15 0 9 9 15 24 15 13 0 26 -7 30 -15 3 -8 12 -15 20 -15 11 0 9 12 -10 58 -23
58 -49 78 -61 45z"/>
<path d="M950 740 c0 -47 3 -60 15 -60 11 0 15 11 15 37 l0 38 25 -38 c39 -56
55 -49 55 23 0 47 -3 60 -15 60 -11 0 -15 -11 -15 -37 l0 -38 -25 38 c-39 56
-55 49 -55 -23z"/>
<path d="M1070 790 c0 -5 9 -10 21 -10 19 0 21 -5 17 -50 -2 -39 0 -50 12 -50
12 0 14 11 12 50 -4 45 -2 50 17 50 12 0 21 5 21 10 0 6 -22 10 -50 10 -27 0
-50 -4 -50 -10z"/>
<path d="M1184 785 c-9 -22 3 -46 26 -52 28 -7 26 -35 -2 -31 -26 3 -37 -15
-13 -20 9 -2 27 -1 41 2 34 9 33 53 -1 66 -31 12 -33 32 -3 28 11 -2 23 3 25
10 7 18 -66 16 -73 -3z"/>
<path d="M1740 593 c-7 -21 -30 -71 -51 -111 -94 -178 -231 -307 -422 -398
-40 -19 -61 -32 -47 -28 39 10 118 52 191 100 89 59 207 185 263 281 46 77 91
182 82 190 -2 2 -9 -13 -16 -34z"/>
<path d="M56 580 c23 -86 121 -235 216 -326 92 -89 224 -174 308 -199 14 -4
-18 15 -70 42 -199 101 -330 235 -426 436 -19 40 -32 61 -28 47z"/>
</g>
</svg>
